<mxfile host="app.diagrams.net" agent="Mozilla/5.0 (Macintosh; Intel Mac OS X 10_15_7) AppleWebKit/537.36 (KHTML, like Gecko) Chrome/131.0.0.0 Safari/537.36" version="25.0.3">
  <diagram name="페이지-1" id="5iZCqzwtPhLVUHu9DLhD">
    <mxGraphModel dx="1509" dy="1974" grid="1" gridSize="10" guides="1" tooltips="1" connect="1" arrows="1" fold="1" page="1" pageScale="1" pageWidth="827" pageHeight="1169" math="0" shadow="0">
      <root>
        <mxCell id="0" />
        <mxCell id="1" parent="0" />
        <mxCell id="1zdpLOT8409TKX1W4BJJ-4" value="user" style="swimlane;fontStyle=0;childLayout=stackLayout;horizontal=1;startSize=30;horizontalStack=0;resizeParent=1;resizeParentMax=0;resizeLast=0;collapsible=1;marginBottom=0;whiteSpace=wrap;html=1;" vertex="1" parent="1">
          <mxGeometry x="200" y="-30" width="240" height="180" as="geometry" />
        </mxCell>
        <mxCell id="1zdpLOT8409TKX1W4BJJ-5" value="&lt;span style=&quot;font-size: 13px; background-color: var(--vscode-textCodeBlock-background); border-radius: 4px; padding: 1px 4px; word-break: break-word; font-family: Menlo, Monaco, &amp;quot;Courier New&amp;quot;, monospace; cursor: pointer; color: var(--vscode-textLink-foreground);&quot; class=&quot;markdown-inline-code&quot;&gt;username&lt;/span&gt;&lt;span style=&quot;color: rgb(214, 214, 221); font-family: -apple-system, &amp;quot;system-ui&amp;quot;, &amp;quot;Nanum Gothic&amp;quot;, &amp;quot;Apple SD Gothic Neo&amp;quot;, AppleGothic, sans-serif; font-size: 13px; background-color: rgb(24, 24, 24);&quot;&gt;: 사용자명&lt;/span&gt;" style="text;strokeColor=none;fillColor=none;align=left;verticalAlign=middle;spacingLeft=4;spacingRight=4;overflow=hidden;points=[[0,0.5],[1,0.5]];portConstraint=eastwest;rotatable=0;whiteSpace=wrap;html=1;" vertex="1" parent="1zdpLOT8409TKX1W4BJJ-4">
          <mxGeometry y="30" width="240" height="30" as="geometry" />
        </mxCell>
        <mxCell id="1zdpLOT8409TKX1W4BJJ-6" value="&lt;meta charset=&quot;utf-8&quot;&gt;&lt;span style=&quot;font-size: 13px; font-style: normal; font-variant-ligatures: normal; font-variant-caps: normal; font-weight: 400; letter-spacing: normal; orphans: 2; text-align: left; text-indent: 0px; text-transform: none; widows: 2; word-spacing: 0px; -webkit-text-stroke-width: 0px; white-space: normal; text-decoration-thickness: initial; text-decoration-style: initial; text-decoration-color: initial; background-color: var(--vscode-textCodeBlock-background); border-radius: 4px; padding: 1px 4px; word-break: break-word; font-family: Menlo, Monaco, &amp;quot;Courier New&amp;quot;, monospace; cursor: pointer; color: var(--vscode-textLink-foreground);&quot; class=&quot;markdown-inline-code&quot;&gt;&lt;span&gt;password&lt;/span&gt;&lt;/span&gt;&lt;span style=&quot;color: rgb(214, 214, 221); font-family: -apple-system, &amp;quot;system-ui&amp;quot;, &amp;quot;Nanum Gothic&amp;quot;, &amp;quot;Apple SD Gothic Neo&amp;quot;, AppleGothic, sans-serif; font-size: 13px; font-style: normal; font-variant-ligatures: normal; font-variant-caps: normal; font-weight: 400; letter-spacing: normal; orphans: 2; text-align: left; text-indent: 0px; text-transform: none; widows: 2; word-spacing: 0px; -webkit-text-stroke-width: 0px; white-space: normal; background-color: rgb(24, 24, 24); text-decoration-thickness: initial; text-decoration-style: initial; text-decoration-color: initial;&quot;&gt;: 비밀번호&lt;/span&gt;" style="text;strokeColor=none;fillColor=none;align=left;verticalAlign=middle;spacingLeft=4;spacingRight=4;overflow=hidden;points=[[0,0.5],[1,0.5]];portConstraint=eastwest;rotatable=0;whiteSpace=wrap;html=1;" vertex="1" parent="1zdpLOT8409TKX1W4BJJ-4">
          <mxGeometry y="60" width="240" height="30" as="geometry" />
        </mxCell>
        <mxCell id="1zdpLOT8409TKX1W4BJJ-7" value="&lt;meta charset=&quot;utf-8&quot;&gt;&lt;span style=&quot;font-size: 13px; font-style: normal; font-variant-ligatures: normal; font-variant-caps: normal; font-weight: 400; letter-spacing: normal; orphans: 2; text-align: left; text-indent: 0px; text-transform: none; widows: 2; word-spacing: 0px; -webkit-text-stroke-width: 0px; white-space: normal; text-decoration-thickness: initial; text-decoration-style: initial; text-decoration-color: initial; background-color: var(--vscode-textCodeBlock-background); border-radius: 4px; padding: 1px 4px; word-break: break-word; font-family: Menlo, Monaco, &amp;quot;Courier New&amp;quot;, monospace; cursor: pointer; color: var(--vscode-textLink-foreground);&quot; class=&quot;markdown-inline-code&quot;&gt;&lt;span&gt;profile_image&lt;/span&gt;&lt;/span&gt;&lt;span style=&quot;color: rgb(214, 214, 221); font-family: -apple-system, &amp;quot;system-ui&amp;quot;, &amp;quot;Nanum Gothic&amp;quot;, &amp;quot;Apple SD Gothic Neo&amp;quot;, AppleGothic, sans-serif; font-size: 13px; font-style: normal; font-variant-ligatures: normal; font-variant-caps: normal; font-weight: 400; letter-spacing: normal; orphans: 2; text-align: left; text-indent: 0px; text-transform: none; widows: 2; word-spacing: 0px; -webkit-text-stroke-width: 0px; white-space: normal; background-color: rgb(24, 24, 24); text-decoration-thickness: initial; text-decoration-style: initial; text-decoration-color: initial;&quot;&gt;: 프로필 이미지&lt;/span&gt;" style="text;strokeColor=none;fillColor=none;align=left;verticalAlign=middle;spacingLeft=4;spacingRight=4;overflow=hidden;points=[[0,0.5],[1,0.5]];portConstraint=eastwest;rotatable=0;whiteSpace=wrap;html=1;" vertex="1" parent="1zdpLOT8409TKX1W4BJJ-4">
          <mxGeometry y="90" width="240" height="30" as="geometry" />
        </mxCell>
        <mxCell id="1zdpLOT8409TKX1W4BJJ-24" value="&lt;span style=&quot;font-size: 13px; background-color: var(--vscode-textCodeBlock-background); border-radius: 4px; padding: 1px 4px; word-break: break-word; font-family: Menlo, Monaco, &amp;quot;Courier New&amp;quot;, monospace; cursor: pointer; color: var(--vscode-textLink-foreground);&quot; class=&quot;markdown-inline-code&quot;&gt;email&lt;/span&gt;&lt;span style=&quot;color: rgb(214, 214, 221); font-family: -apple-system, &amp;quot;system-ui&amp;quot;, &amp;quot;Nanum Gothic&amp;quot;, &amp;quot;Apple SD Gothic Neo&amp;quot;, AppleGothic, sans-serif; font-size: 13px; background-color: rgb(24, 24, 24);&quot;&gt;: 이메일 주소&lt;/span&gt;" style="text;strokeColor=none;fillColor=none;align=left;verticalAlign=middle;spacingLeft=4;spacingRight=4;overflow=hidden;points=[[0,0.5],[1,0.5]];portConstraint=eastwest;rotatable=0;whiteSpace=wrap;html=1;" vertex="1" parent="1zdpLOT8409TKX1W4BJJ-4">
          <mxGeometry y="120" width="240" height="30" as="geometry" />
        </mxCell>
        <mxCell id="1zdpLOT8409TKX1W4BJJ-25" value="&lt;meta charset=&quot;utf-8&quot;&gt;&lt;span style=&quot;font-size: 13px; font-style: normal; font-variant-ligatures: normal; font-variant-caps: normal; font-weight: 400; letter-spacing: normal; orphans: 2; text-align: left; text-indent: 0px; text-transform: none; widows: 2; word-spacing: 0px; -webkit-text-stroke-width: 0px; white-space: normal; text-decoration-thickness: initial; text-decoration-style: initial; text-decoration-color: initial; background-color: var(--vscode-textCodeBlock-background); border-radius: 4px; padding: 1px 4px; word-break: break-word; font-family: Menlo, Monaco, &amp;quot;Courier New&amp;quot;, monospace; cursor: pointer; color: var(--vscode-textLink-foreground);&quot; class=&quot;markdown-inline-code&quot;&gt;&lt;span&gt;first_name&lt;/span&gt;&lt;/span&gt;&lt;span style=&quot;color: rgb(214, 214, 221); font-family: -apple-system, &amp;quot;system-ui&amp;quot;, &amp;quot;Nanum Gothic&amp;quot;, &amp;quot;Apple SD Gothic Neo&amp;quot;, AppleGothic, sans-serif; font-size: 13px; font-style: normal; font-variant-ligatures: normal; font-variant-caps: normal; font-weight: 400; letter-spacing: normal; orphans: 2; text-align: left; text-indent: 0px; text-transform: none; widows: 2; word-spacing: 0px; -webkit-text-stroke-width: 0px; white-space: normal; background-color: rgb(24, 24, 24); text-decoration-thickness: initial; text-decoration-style: initial; text-decoration-color: initial;&quot;&gt;: 이름&lt;/span&gt;" style="text;strokeColor=none;fillColor=none;align=left;verticalAlign=middle;spacingLeft=4;spacingRight=4;overflow=hidden;points=[[0,0.5],[1,0.5]];portConstraint=eastwest;rotatable=0;whiteSpace=wrap;html=1;" vertex="1" parent="1zdpLOT8409TKX1W4BJJ-4">
          <mxGeometry y="150" width="240" height="30" as="geometry" />
        </mxCell>
        <mxCell id="1zdpLOT8409TKX1W4BJJ-37" value="follows" style="edgeStyle=entityRelationEdgeStyle;fontSize=12;html=1;endArrow=ERoneToMany;startArrow=ERmandOne;rounded=0;curved=1;exitX=1;exitY=0.5;exitDx=0;exitDy=0;entryX=1;entryY=0.5;entryDx=0;entryDy=0;" edge="1" parent="1zdpLOT8409TKX1W4BJJ-4" source="1zdpLOT8409TKX1W4BJJ-5" target="1zdpLOT8409TKX1W4BJJ-24">
          <mxGeometry width="100" height="100" relative="1" as="geometry">
            <mxPoint x="200" y="280" as="sourcePoint" />
            <mxPoint x="300" y="180" as="targetPoint" />
            <Array as="points">
              <mxPoint x="310" y="40" />
            </Array>
          </mxGeometry>
        </mxCell>
        <mxCell id="1zdpLOT8409TKX1W4BJJ-8" value="&lt;span style=&quot;color: rgb(214, 214, 221); font-family: -apple-system, &amp;quot;system-ui&amp;quot;, &amp;quot;Nanum Gothic&amp;quot;, &amp;quot;Apple SD Gothic Neo&amp;quot;, AppleGothic, sans-serif; font-size: 13px; font-weight: 600; text-align: left; background-color: rgb(24, 24, 24);&quot;&gt;Product&lt;/span&gt;" style="swimlane;fontStyle=0;childLayout=stackLayout;horizontal=1;startSize=30;horizontalStack=0;resizeParent=1;resizeParentMax=0;resizeLast=0;collapsible=1;marginBottom=0;whiteSpace=wrap;html=1;verticalAlign=bottom;" vertex="1" parent="1">
          <mxGeometry x="80" y="410" width="240" height="210" as="geometry" />
        </mxCell>
        <mxCell id="1zdpLOT8409TKX1W4BJJ-10" value="&lt;span style=&quot;color: inherit; font-size: 13px; font-style: normal; font-variant-ligatures: normal; font-variant-caps: normal; font-weight: 400; letter-spacing: normal; orphans: 2; text-align: left; text-indent: 0px; text-transform: none; widows: 2; word-spacing: 0px; -webkit-text-stroke-width: 0px; white-space: normal; text-decoration-thickness: initial; text-decoration-style: initial; text-decoration-color: initial; background-color: var(--vscode-textCodeBlock-background); border-radius: 4px; padding: 1px 4px; word-break: break-word; font-family: Menlo, Monaco, &amp;quot;Courier New&amp;quot;, monospace; cursor: default;&quot; class=&quot;markdown-inline-code&quot;&gt;&lt;span&gt;user_id&lt;/span&gt;&lt;/span&gt;&lt;span style=&quot;color: rgb(214, 214, 221); font-family: -apple-system, &amp;quot;system-ui&amp;quot;, &amp;quot;Nanum Gothic&amp;quot;, &amp;quot;Apple SD Gothic Neo&amp;quot;, AppleGothic, sans-serif; font-size: 13px; font-style: normal; font-variant-ligatures: normal; font-variant-caps: normal; font-weight: 400; letter-spacing: normal; orphans: 2; text-align: left; text-indent: 0px; text-transform: none; widows: 2; word-spacing: 0px; -webkit-text-stroke-width: 0px; white-space: normal; background-color: rgb(24, 24, 24); text-decoration-thickness: initial; text-decoration-style: initial; text-decoration-color: initial;&quot;&gt;: 생성자&lt;/span&gt;" style="text;strokeColor=none;fillColor=none;align=left;verticalAlign=middle;spacingLeft=4;spacingRight=4;overflow=hidden;points=[[0,0.5],[1,0.5]];portConstraint=eastwest;rotatable=0;whiteSpace=wrap;html=1;" vertex="1" parent="1zdpLOT8409TKX1W4BJJ-8">
          <mxGeometry y="30" width="240" height="30" as="geometry" />
        </mxCell>
        <mxCell id="1zdpLOT8409TKX1W4BJJ-11" value="&lt;meta charset=&quot;utf-8&quot;&gt;&lt;span style=&quot;font-size: 13px; font-style: normal; font-variant-ligatures: normal; font-variant-caps: normal; font-weight: 400; letter-spacing: normal; orphans: 2; text-align: left; text-indent: 0px; text-transform: none; widows: 2; word-spacing: 0px; -webkit-text-stroke-width: 0px; white-space: normal; text-decoration-thickness: initial; text-decoration-style: initial; text-decoration-color: initial; background-color: var(--vscode-textCodeBlock-background); border-radius: 4px; padding: 1px 4px; word-break: break-word; font-family: Menlo, Monaco, &amp;quot;Courier New&amp;quot;, monospace; cursor: pointer; color: var(--vscode-textLink-foreground);&quot; class=&quot;markdown-inline-code&quot;&gt;&lt;span&gt;title&lt;/span&gt;&lt;/span&gt;&lt;span style=&quot;color: rgb(214, 214, 221); font-family: -apple-system, &amp;quot;system-ui&amp;quot;, &amp;quot;Nanum Gothic&amp;quot;, &amp;quot;Apple SD Gothic Neo&amp;quot;, AppleGothic, sans-serif; font-size: 13px; font-style: normal; font-variant-ligatures: normal; font-variant-caps: normal; font-weight: 400; letter-spacing: normal; orphans: 2; text-align: left; text-indent: 0px; text-transform: none; widows: 2; word-spacing: 0px; -webkit-text-stroke-width: 0px; white-space: normal; background-color: rgb(24, 24, 24); text-decoration-thickness: initial; text-decoration-style: initial; text-decoration-color: initial;&quot;&gt;: 상품 제목&lt;/span&gt;" style="text;strokeColor=none;fillColor=none;align=left;verticalAlign=middle;spacingLeft=4;spacingRight=4;overflow=hidden;points=[[0,0.5],[1,0.5]];portConstraint=eastwest;rotatable=0;whiteSpace=wrap;html=1;" vertex="1" parent="1zdpLOT8409TKX1W4BJJ-8">
          <mxGeometry y="60" width="240" height="30" as="geometry" />
        </mxCell>
        <mxCell id="1zdpLOT8409TKX1W4BJJ-22" value="&lt;meta charset=&quot;utf-8&quot;&gt;&lt;span style=&quot;font-size: 13px; font-style: normal; font-variant-ligatures: normal; font-variant-caps: normal; font-weight: 400; letter-spacing: normal; orphans: 2; text-align: left; text-indent: 0px; text-transform: none; widows: 2; word-spacing: 0px; -webkit-text-stroke-width: 0px; white-space: normal; text-decoration-thickness: initial; text-decoration-style: initial; text-decoration-color: initial; background-color: var(--vscode-textCodeBlock-background); border-radius: 4px; padding: 1px 4px; word-break: break-word; font-family: Menlo, Monaco, &amp;quot;Courier New&amp;quot;, monospace; cursor: pointer; color: var(--vscode-textLink-foreground);&quot; class=&quot;markdown-inline-code&quot;&gt;&lt;span&gt;description&lt;/span&gt;&lt;/span&gt;&lt;span style=&quot;color: rgb(214, 214, 221); font-family: -apple-system, &amp;quot;system-ui&amp;quot;, &amp;quot;Nanum Gothic&amp;quot;, &amp;quot;Apple SD Gothic Neo&amp;quot;, AppleGothic, sans-serif; font-size: 13px; font-style: normal; font-variant-ligatures: normal; font-variant-caps: normal; font-weight: 400; letter-spacing: normal; orphans: 2; text-align: left; text-indent: 0px; text-transform: none; widows: 2; word-spacing: 0px; -webkit-text-stroke-width: 0px; white-space: normal; background-color: rgb(24, 24, 24); text-decoration-thickness: initial; text-decoration-style: initial; text-decoration-color: initial;&quot;&gt;: 상품 설명&lt;/span&gt;" style="text;strokeColor=none;fillColor=none;align=left;verticalAlign=middle;spacingLeft=4;spacingRight=4;overflow=hidden;points=[[0,0.5],[1,0.5]];portConstraint=eastwest;rotatable=0;whiteSpace=wrap;html=1;" vertex="1" parent="1zdpLOT8409TKX1W4BJJ-8">
          <mxGeometry y="90" width="240" height="30" as="geometry" />
        </mxCell>
        <mxCell id="1zdpLOT8409TKX1W4BJJ-23" value="&lt;meta charset=&quot;utf-8&quot;&gt;&lt;span style=&quot;font-size: 13px; font-style: normal; font-variant-ligatures: normal; font-variant-caps: normal; font-weight: 400; letter-spacing: normal; orphans: 2; text-align: left; text-indent: 0px; text-transform: none; widows: 2; word-spacing: 0px; -webkit-text-stroke-width: 0px; white-space: normal; text-decoration-thickness: initial; text-decoration-style: initial; text-decoration-color: initial; background-color: var(--vscode-textCodeBlock-background); border-radius: 4px; padding: 1px 4px; word-break: break-word; font-family: Menlo, Monaco, &amp;quot;Courier New&amp;quot;, monospace; cursor: pointer; color: var(--vscode-textLink-foreground);&quot; class=&quot;markdown-inline-code&quot;&gt;&lt;span&gt;image&lt;/span&gt;&lt;/span&gt;&lt;span style=&quot;color: rgb(214, 214, 221); font-family: -apple-system, &amp;quot;system-ui&amp;quot;, &amp;quot;Nanum Gothic&amp;quot;, &amp;quot;Apple SD Gothic Neo&amp;quot;, AppleGothic, sans-serif; font-size: 13px; font-style: normal; font-variant-ligatures: normal; font-variant-caps: normal; font-weight: 400; letter-spacing: normal; orphans: 2; text-align: left; text-indent: 0px; text-transform: none; widows: 2; word-spacing: 0px; -webkit-text-stroke-width: 0px; white-space: normal; background-color: rgb(24, 24, 24); text-decoration-thickness: initial; text-decoration-style: initial; text-decoration-color: initial;&quot;&gt;: 상품 이미지 경로&lt;/span&gt;" style="text;strokeColor=none;fillColor=none;align=left;verticalAlign=middle;spacingLeft=4;spacingRight=4;overflow=hidden;points=[[0,0.5],[1,0.5]];portConstraint=eastwest;rotatable=0;whiteSpace=wrap;html=1;" vertex="1" parent="1zdpLOT8409TKX1W4BJJ-8">
          <mxGeometry y="120" width="240" height="30" as="geometry" />
        </mxCell>
        <mxCell id="1zdpLOT8409TKX1W4BJJ-26" value="&lt;meta charset=&quot;utf-8&quot;&gt;&lt;span style=&quot;font-size: 13px; font-style: normal; font-variant-ligatures: normal; font-variant-caps: normal; font-weight: 400; letter-spacing: normal; orphans: 2; text-align: left; text-indent: 0px; text-transform: none; widows: 2; word-spacing: 0px; -webkit-text-stroke-width: 0px; white-space: normal; text-decoration-thickness: initial; text-decoration-style: initial; text-decoration-color: initial; background-color: var(--vscode-textCodeBlock-background); border-radius: 4px; padding: 1px 4px; word-break: break-word; font-family: Menlo, Monaco, &amp;quot;Courier New&amp;quot;, monospace; cursor: pointer; color: var(--vscode-textLink-foreground);&quot; class=&quot;markdown-inline-code&quot;&gt;&lt;span&gt;created_at&lt;/span&gt;&lt;/span&gt;&lt;span style=&quot;color: rgb(214, 214, 221); font-family: -apple-system, &amp;quot;system-ui&amp;quot;, &amp;quot;Nanum Gothic&amp;quot;, &amp;quot;Apple SD Gothic Neo&amp;quot;, AppleGothic, sans-serif; font-size: 13px; font-style: normal; font-variant-ligatures: normal; font-variant-caps: normal; font-weight: 400; letter-spacing: normal; orphans: 2; text-align: left; text-indent: 0px; text-transform: none; widows: 2; word-spacing: 0px; -webkit-text-stroke-width: 0px; white-space: normal; background-color: rgb(24, 24, 24); text-decoration-thickness: initial; text-decoration-style: initial; text-decoration-color: initial;&quot;&gt;: 생성 일시&lt;/span&gt;" style="text;strokeColor=none;fillColor=none;align=left;verticalAlign=middle;spacingLeft=4;spacingRight=4;overflow=hidden;points=[[0,0.5],[1,0.5]];portConstraint=eastwest;rotatable=0;whiteSpace=wrap;html=1;" vertex="1" parent="1zdpLOT8409TKX1W4BJJ-8">
          <mxGeometry y="150" width="240" height="30" as="geometry" />
        </mxCell>
        <mxCell id="1zdpLOT8409TKX1W4BJJ-27" value="&lt;meta charset=&quot;utf-8&quot;&gt;&lt;span style=&quot;font-size: 13px; font-style: normal; font-variant-ligatures: normal; font-variant-caps: normal; font-weight: 400; letter-spacing: normal; orphans: 2; text-align: left; text-indent: 0px; text-transform: none; widows: 2; word-spacing: 0px; -webkit-text-stroke-width: 0px; white-space: normal; text-decoration-thickness: initial; text-decoration-style: initial; text-decoration-color: initial; background-color: var(--vscode-textCodeBlock-background); border-radius: 4px; padding: 1px 4px; word-break: break-word; font-family: Menlo, Monaco, &amp;quot;Courier New&amp;quot;, monospace; cursor: pointer; color: var(--vscode-textLink-foreground);&quot; class=&quot;markdown-inline-code&quot;&gt;&lt;span&gt;views&lt;/span&gt;&lt;/span&gt;&lt;span style=&quot;color: rgb(214, 214, 221); font-family: -apple-system, &amp;quot;system-ui&amp;quot;, &amp;quot;Nanum Gothic&amp;quot;, &amp;quot;Apple SD Gothic Neo&amp;quot;, AppleGothic, sans-serif; font-size: 13px; font-style: normal; font-variant-ligatures: normal; font-variant-caps: normal; font-weight: 400; letter-spacing: normal; orphans: 2; text-align: left; text-indent: 0px; text-transform: none; widows: 2; word-spacing: 0px; -webkit-text-stroke-width: 0px; white-space: normal; background-color: rgb(24, 24, 24); text-decoration-thickness: initial; text-decoration-style: initial; text-decoration-color: initial;&quot;&gt;: 조회수&lt;/span&gt;" style="text;strokeColor=none;fillColor=none;align=left;verticalAlign=middle;spacingLeft=4;spacingRight=4;overflow=hidden;points=[[0,0.5],[1,0.5]];portConstraint=eastwest;rotatable=0;whiteSpace=wrap;html=1;" vertex="1" parent="1zdpLOT8409TKX1W4BJJ-8">
          <mxGeometry y="180" width="240" height="30" as="geometry" />
        </mxCell>
        <mxCell id="1zdpLOT8409TKX1W4BJJ-12" value="&lt;span style=&quot;color: rgb(214, 214, 221); font-family: -apple-system, &amp;quot;system-ui&amp;quot;, &amp;quot;Nanum Gothic&amp;quot;, &amp;quot;Apple SD Gothic Neo&amp;quot;, AppleGothic, sans-serif; font-size: 13px; font-weight: 600; text-align: left; background-color: rgb(24, 24, 24);&quot;&gt;HashTag&lt;/span&gt;" style="swimlane;fontStyle=0;childLayout=stackLayout;horizontal=1;startSize=30;horizontalStack=0;resizeParent=1;resizeParentMax=0;resizeLast=0;collapsible=1;marginBottom=0;whiteSpace=wrap;html=1;" vertex="1" parent="1">
          <mxGeometry x="560" y="320" width="230" height="90" as="geometry" />
        </mxCell>
        <mxCell id="1zdpLOT8409TKX1W4BJJ-13" value="&lt;meta charset=&quot;utf-8&quot;&gt;&lt;span style=&quot;color: inherit; font-size: 13px; font-style: normal; font-variant-ligatures: normal; font-variant-caps: normal; font-weight: 400; letter-spacing: normal; orphans: 2; text-align: left; text-indent: 0px; text-transform: none; widows: 2; word-spacing: 0px; -webkit-text-stroke-width: 0px; white-space: normal; text-decoration-thickness: initial; text-decoration-style: initial; text-decoration-color: initial; background-color: var(--vscode-textCodeBlock-background); border-radius: 4px; padding: 1px 4px; word-break: break-word; font-family: Menlo, Monaco, &amp;quot;Courier New&amp;quot;, monospace; cursor: default;&quot; class=&quot;markdown-inline-code&quot;&gt;&lt;span&gt;id&lt;/span&gt;&lt;/span&gt;&lt;span style=&quot;color: rgb(214, 214, 221); font-family: -apple-system, &amp;quot;system-ui&amp;quot;, &amp;quot;Nanum Gothic&amp;quot;, &amp;quot;Apple SD Gothic Neo&amp;quot;, AppleGothic, sans-serif; font-size: 13px; font-style: normal; font-variant-ligatures: normal; font-variant-caps: normal; font-weight: 400; letter-spacing: normal; orphans: 2; text-align: left; text-indent: 0px; text-transform: none; widows: 2; word-spacing: 0px; -webkit-text-stroke-width: 0px; white-space: normal; background-color: rgb(24, 24, 24); text-decoration-thickness: initial; text-decoration-style: initial; text-decoration-color: initial;&quot;&gt;: 기본 키&lt;/span&gt;" style="text;strokeColor=none;fillColor=none;align=left;verticalAlign=middle;spacingLeft=4;spacingRight=4;overflow=hidden;points=[[0,0.5],[1,0.5]];portConstraint=eastwest;rotatable=0;whiteSpace=wrap;html=1;" vertex="1" parent="1zdpLOT8409TKX1W4BJJ-12">
          <mxGeometry y="30" width="230" height="30" as="geometry" />
        </mxCell>
        <mxCell id="1zdpLOT8409TKX1W4BJJ-14" value="&lt;span style=&quot;font-size: 13px; background-color: var(--vscode-textCodeBlock-background); border-radius: 4px; padding: 1px 4px; word-break: break-word; font-family: Menlo, Monaco, &amp;quot;Courier New&amp;quot;, monospace; cursor: pointer; color: var(--vscode-textLink-foreground);&quot; class=&quot;markdown-inline-code&quot;&gt;name&lt;/span&gt;&lt;span style=&quot;color: rgb(214, 214, 221); font-family: -apple-system, &amp;quot;system-ui&amp;quot;, &amp;quot;Nanum Gothic&amp;quot;, &amp;quot;Apple SD Gothic Neo&amp;quot;, AppleGothic, sans-serif; font-size: 13px; background-color: rgb(24, 24, 24);&quot;&gt;: 해시태그 이름 (고유)&lt;/span&gt;" style="text;strokeColor=none;fillColor=none;align=left;verticalAlign=middle;spacingLeft=4;spacingRight=4;overflow=hidden;points=[[0,0.5],[1,0.5]];portConstraint=eastwest;rotatable=0;whiteSpace=wrap;html=1;" vertex="1" parent="1zdpLOT8409TKX1W4BJJ-12">
          <mxGeometry y="60" width="230" height="30" as="geometry" />
        </mxCell>
        <mxCell id="1zdpLOT8409TKX1W4BJJ-36" value="has" style="edgeStyle=entityRelationEdgeStyle;fontSize=12;html=1;endArrow=ERoneToMany;startArrow=ERmandOne;rounded=0;curved=1;entryX=0;entryY=0.25;entryDx=0;entryDy=0;" edge="1" parent="1" target="1zdpLOT8409TKX1W4BJJ-12">
          <mxGeometry width="100" height="100" relative="1" as="geometry">
            <mxPoint x="320" y="430" as="sourcePoint" />
            <mxPoint x="420" y="330" as="targetPoint" />
          </mxGeometry>
        </mxCell>
        <mxCell id="1zdpLOT8409TKX1W4BJJ-39" value="create" style="fontSize=12;html=1;endArrow=ERoneToMany;startArrow=ERmandOne;rounded=0;exitX=0.129;exitY=1.025;exitDx=0;exitDy=0;exitPerimeter=0;entryX=0.629;entryY=-0.002;entryDx=0;entryDy=0;entryPerimeter=0;" edge="1" parent="1" source="1zdpLOT8409TKX1W4BJJ-25" target="1zdpLOT8409TKX1W4BJJ-8">
          <mxGeometry width="100" height="100" relative="1" as="geometry">
            <mxPoint x="240" y="160" as="sourcePoint" />
            <mxPoint x="230" y="400" as="targetPoint" />
          </mxGeometry>
        </mxCell>
        <mxCell id="1zdpLOT8409TKX1W4BJJ-40" value="likes" style="fontSize=12;html=1;endArrow=ERoneToMany;startArrow=ERmandOne;rounded=0;entryX=0.91;entryY=0.004;entryDx=0;entryDy=0;entryPerimeter=0;exitX=0.528;exitY=1.095;exitDx=0;exitDy=0;exitPerimeter=0;" edge="1" parent="1" source="1zdpLOT8409TKX1W4BJJ-25" target="1zdpLOT8409TKX1W4BJJ-8">
          <mxGeometry width="100" height="100" relative="1" as="geometry">
            <mxPoint x="300" y="409" as="sourcePoint" />
            <mxPoint x="376" y="150" as="targetPoint" />
          </mxGeometry>
        </mxCell>
      </root>
    </mxGraphModel>
  </diagram>
</mxfile>
